<?xml version="1.0" encoding="utf-8"?>
<svg version="1.1" xmlns:xlink="http://www.w3.org/1999/xlink" width="20px" height="22px" xmlns="http://www.w3.org/2000/svg">
  <g transform="matrix(1 0 0 1 -338 -200 )">
    <path d="M 3.37953795379538 20.1412541254125  L 4.79207920792079 20.1412541254125  L 5.99339933993399 18.819801980198  L 2.89108910891089 15.4072607260726  L 1.68976897689769 16.7287128712871  L 1.68976897689769 18.2825082508251  L 3.37953795379538 18.2825082508251  L 3.37953795379538 20.1412541254125  Z M 11.6039603960396 6.91221122112211  C 11.6655665566557 6.84444444444445  11.6963696369637 6.76215621562156  11.6963696369637 6.66534653465347  C 11.6963696369637 6.45236523652365  11.5995599559956 6.34587458745875  11.4059405940594 6.34587458745875  C 11.3179317931793 6.34587458745875  11.2431243124312 6.37975797579758  11.1815181518152 6.44752475247525  L 4.02640264026403 14.3181518151815  C 3.96479647964797 14.3859185918592  3.93399339933993 14.4682068206821  3.93399339933993 14.5650165016502  C 3.93399339933993 14.77799779978  4.03080308030803 14.8844884488449  4.22442244224422 14.8844884488449  C 4.31243124312431 14.8844884488449  4.38723872387239 14.850605060506  4.44884488448845 14.7828382838284  L 11.6039603960396 6.91221122112211  Z M 0 15.9590759075908  L 10.983498349835 3.87722772277228  L 16.4752475247525 9.91815181518152  L 5.49174917491749 22  L 0 22  L 0 15.9590759075908  Z M 19.5115511551155 3.94983498349835  C 19.8371837183718 4.32739273927393  20 4.76787678767877  20 5.27128712871287  C 20 5.78437843784378  19.8371837183718 6.22002200220022  19.5115511551155 6.57821782178218  L 17.3201320132013 8.98877887788779  L 11.8283828382838 2.94785478547855  L 14.019801980198 0.551815181518151  C 14.3366336633663 0.183938393839382  14.7326732673267 0  15.2079207920792 0  C 15.6743674367437 0  16.0748074807481 0.183938393839382  16.4092409240924 0.551815181518151  L 19.5115511551155 3.94983498349835  Z " fill-rule="nonzero" fill="#000000" stroke="none" transform="matrix(1 0 0 1 338 200 )" />
  </g>
</svg>