<?xml version="1.0" encoding="utf-8"?>
<svg version="1.1" xmlns:xlink="http://www.w3.org/1999/xlink" width="20px" height="21px" xmlns="http://www.w3.org/2000/svg">
  <g transform="matrix(1 0 0 1 -338 -303 )">
    <path d="M 3.37953795379538 19.2257425742574  L 4.79207920792079 19.2257425742574  L 5.99339933993399 17.9643564356436  L 2.89108910891089 14.7069306930693  L 1.68976897689769 15.9683168316832  L 1.68976897689769 17.4514851485149  L 3.37953795379538 17.4514851485149  L 3.37953795379538 19.2257425742574  Z M 11.6039603960396 6.5980198019802  C 11.6655665566557 6.53333333333333  11.6963696369637 6.45478547854785  11.6963696369637 6.36237623762376  C 11.6963696369637 6.15907590759076  11.5995599559956 6.05742574257426  11.4059405940594 6.05742574257426  C 11.3179317931793 6.05742574257426  11.2431243124312 6.08976897689769  11.1815181518152 6.15445544554456  L 4.02640264026403 13.6673267326733  C 3.96479647964797 13.7320132013201  3.93399339933993 13.8105610561056  3.93399339933993 13.9029702970297  C 3.93399339933993 14.1062706270627  4.03080308030803 14.2079207920792  4.22442244224422 14.2079207920792  C 4.31243124312431 14.2079207920792  4.38723872387239 14.1755775577558  4.44884488448845 14.1108910891089  L 11.6039603960396 6.5980198019802  Z M 0 15.2336633663366  L 10.983498349835 3.7009900990099  L 16.4752475247525 9.46732673267327  L 5.49174917491749 21  L 0 21  L 0 15.2336633663366  Z M 19.5115511551155 3.77029702970297  C 19.8371837183718 4.13069306930693  20 4.55115511551155  20 5.03168316831683  C 20 5.52145214521452  19.8371837183718 5.93729372937294  19.5115511551155 6.27920792079208  L 17.3201320132013 8.58019801980198  L 11.8283828382838 2.81386138613861  L 14.019801980198 0.526732673267326  C 14.3366336633663 0.175577557755774  14.7326732673267 0  15.2079207920792 0  C 15.6743674367437 0  16.0748074807481 0.175577557755774  16.4092409240924 0.526732673267326  L 19.5115511551155 3.77029702970297  Z " fill-rule="nonzero" fill="#000000" stroke="none" transform="matrix(1 0 0 1 338 303 )" />
  </g>
</svg>