<?xml version="1.0" encoding="utf-8"?>
<svg version="1.1" xmlns:xlink="http://www.w3.org/1999/xlink" width="66px" height="66px" xmlns="http://www.w3.org/2000/svg">
  <g transform="matrix(1 0 0 1 -432 -240 )">
    <path d="M 432 240  L 498 240  L 498 306  L 432 306  L 432 240  " fill-rule="nonzero" fill="#cccccc" stroke="none" />
    <path d="M 437 245  L 493 245  L 493 301  L 437 301  L 437 245  " fill-rule="nonzero" fill="#ffffff" stroke="none" />
    <path d="M 471.27 259.8  C 468.498 259.8  466.32 257.622  466.32 254.85  C 466.32 252.078  468.498 249.9  471.27 249.9  C 474.042 249.9  476.22 252.078  476.22 254.85  C 476.22 257.622  474.042 259.8  471.27 259.8  " fill-rule="nonzero" fill="#cccccc" stroke="none" />
    <path d="M 439 300  L 439 270.85  L 452.25 257.6  L 470.8 268.2  L 481.4 265.55  L 492 268.2  L 492 300  L 439 300  " fill-rule="nonzero" fill="#169bd5" stroke="none" />
  </g>
</svg>