<?xml version="1.0" encoding="utf-8"?>
<svg version="1.1" xmlns:xlink="http://www.w3.org/1999/xlink" width="1045px" height="10px" preserveAspectRatio="xMinYMid meet" viewBox="389 323  1045 8" xmlns="http://www.w3.org/2000/svg">
  <path d="M 385 200.5  L 389 200.5  A 5 5 0 0 1 394.5 205.5 L 394.5 322  A 5 5 0 0 0 399.5 327.5 L 1429 327.5  " stroke-width="1" stroke-dasharray="9,4" stroke="#1abc9c" fill="none" />
  <path d="M 387 197.5  A 3 3 0 0 0 384 200.5 A 3 3 0 0 0 387 203.5 A 3 3 0 0 0 390 200.5 A 3 3 0 0 0 387 197.5 Z M 1428 333.8  L 1434 327.5  L 1428 321.2  L 1428 333.8  Z " fill-rule="nonzero" fill="#1abc9c" stroke="none" />
</svg>