<?xml version="1.0" encoding="utf-8"?>
<svg version="1.1" xmlns:xlink="http://www.w3.org/1999/xlink" width="18px" height="18px" preserveAspectRatio="xMinYMid meet" viewBox="702 473  18 16" xmlns="http://www.w3.org/2000/svg">
  <path d="M 711.5 479  L 711.5 485  A 5 5 0 0 0 716.5 490.5 L 1415 490.5  A 5 5 0 0 0 1420.5 485.5 L 1420.5 422  A 5 5 0 0 1 1425.5 417.5 L 1433 417.5  " stroke-width="1" stroke="#1abc9c" fill="none" />
  <path d="M 711.5 478  A 3 3 0 0 0 708.5 481 A 3 3 0 0 0 711.5 484 A 3 3 0 0 0 714.5 481 A 3 3 0 0 0 711.5 478 Z M 1432 423.8  L 1438 417.5  L 1432 411.2  L 1432 423.8  Z " fill-rule="nonzero" fill="#1abc9c" stroke="none" />
</svg>