<?xml version="1.0" encoding="utf-8"?>
<svg version="1.1" xmlns:xlink="http://www.w3.org/1999/xlink" width="100px" height="100px" xmlns="http://www.w3.org/2000/svg">
  <g transform="matrix(1 0 0 1 -661 -271 )">
    <path d="M 661 271  L 761 271  L 761 371  L 661 371  L 661 271  " fill-rule="nonzero" fill="#cccccc" stroke="none" />
    <path d="M 668 278  L 754 278  L 754 364  L 668 364  L 668 278  " fill-rule="nonzero" fill="#ffffff" stroke="none" />
    <path d="M 720.5 301  C 716.3 301  713 297.7  713 293.5  C 713 289.3  716.3 286  720.5 286  C 724.7 286  728 289.3  728 293.5  C 728 297.7  724.7 301  720.5 301  " fill-rule="nonzero" fill="#cccccc" stroke="none" />
    <path d="M 671 362  L 671 317.45  L 691.25 297.2  L 719.6 313.4  L 735.8 309.35  L 752 313.4  L 752 362  L 671 362  " fill-rule="nonzero" fill="#169bd5" stroke="none" />
  </g>
</svg>