<?xml version="1.0" encoding="utf-8"?>
<svg version="1.1" xmlns:xlink="http://www.w3.org/1999/xlink" width="13px" height="12px" xmlns="http://www.w3.org/2000/svg">
  <g transform="matrix(1 0 0 1 -691 -142 )">
    <path d="M 2.196699669967 10.9861386138614  L 3.11485148514852 10.9861386138614  L 3.8957095709571 10.2653465346535  L 1.87920792079208 8.4039603960396  L 1.0983498349835 9.12475247524753  L 1.0983498349835 9.97227722772277  L 2.196699669967 9.97227722772277  L 2.196699669967 10.9861386138614  Z M 7.54257425742574 3.77029702970297  C 7.58261826182618 3.73333333333333  7.6026402640264 3.68844884488449  7.6026402640264 3.63564356435644  C 7.6026402640264 3.51947194719472  7.53971397139714 3.46138613861386  7.41386138613861 3.46138613861386  C 7.35665566556656 3.46138613861386  7.30803080308031 3.47986798679868  7.26798679867987 3.51683168316832  L 2.61716171617162 7.80990099009901  C 2.57711771177118 7.84686468646865  2.55709570957096 7.89174917491749  2.55709570957096 7.94455445544554  C 2.55709570957096 8.06072607260726  2.62002200220022 8.11881188118812  2.74587458745875 8.11881188118812  C 2.8030803080308 8.11881188118812  2.85170517051705 8.1003300330033  2.89174917491749 8.06336633663366  L 7.54257425742574 3.77029702970297  Z M 0 8.70495049504951  L 7.13927392739274 2.11485148514852  L 10.7089108910891 5.40990099009901  L 3.56963696369637 12  L 0 12  L 0 8.70495049504951  Z M 12.6825082508251 2.15445544554455  C 12.8941694169417 2.36039603960396  13 2.6006600660066  13 2.87524752475248  C 13 3.15511551155116  12.8941694169417 3.39273927392739  12.6825082508251 3.58811881188119  L 11.2580858085809 4.9029702970297  L 7.68844884488449 1.60792079207921  L 9.11287128712871 0.3009900990099  C 9.31881188118812 0.100330033003299  9.57623762376238 0  9.88514851485149 0  C 10.1883388338834 0  10.4486248624863 0.100330033003299  10.6660066006601 0.3009900990099  L 12.6825082508251 2.15445544554455  Z " fill-rule="nonzero" fill="#000000" stroke="none" transform="matrix(1 0 0 1 691 142 )" />
  </g>
</svg>