<?xml version="1.0" encoding="utf-8"?>
<svg version="1.1" xmlns:xlink="http://www.w3.org/1999/xlink" width="20px" height="18px" xmlns="http://www.w3.org/2000/svg">
  <g transform="matrix(1 0 0 1 -338 -277 )">
    <path d="M 3.37953795379538 16.4792079207921  L 4.79207920792079 16.4792079207921  L 5.99339933993399 15.3980198019802  L 2.89108910891089 12.6059405940594  L 1.68976897689769 13.6871287128713  L 1.68976897689769 14.9584158415842  L 3.37953795379538 14.9584158415842  L 3.37953795379538 16.4792079207921  Z M 11.6039603960396 5.65544554455446  C 11.6655665566557 5.6  11.6963696369637 5.53267326732673  11.6963696369637 5.45346534653465  C 11.6963696369637 5.27920792079208  11.5995599559956 5.19207920792079  11.4059405940594 5.19207920792079  C 11.3179317931793 5.19207920792079  11.2431243124312 5.21980198019802  11.1815181518152 5.27524752475248  L 4.02640264026403 11.7148514851485  C 3.96479647964797 11.770297029703  3.93399339933993 11.8376237623762  3.93399339933993 11.9168316831683  C 3.93399339933993 12.0910891089109  4.03080308030803 12.1782178217822  4.22442244224422 12.1782178217822  C 4.31243124312431 12.1782178217822  4.38723872387239 12.150495049505  4.44884488448845 12.0950495049505  L 11.6039603960396 5.65544554455446  Z M 0 13.0574257425743  L 10.983498349835 3.17227722772277  L 16.4752475247525 8.11485148514852  L 5.49174917491749 18  L 0 18  L 0 13.0574257425743  Z M 19.5115511551155 3.23168316831683  C 19.8371837183718 3.54059405940594  20 3.9009900990099  20 4.31287128712871  C 20 4.73267326732673  19.8371837183718 5.08910891089109  19.5115511551155 5.38217821782178  L 17.3201320132013 7.35445544554455  L 11.8283828382838 2.41188118811881  L 14.019801980198 0.451485148514851  C 14.3366336633663 0.150495049504949  14.7326732673267 0  15.2079207920792 0  C 15.6743674367437 0  16.0748074807481 0.150495049504949  16.4092409240924 0.451485148514851  L 19.5115511551155 3.23168316831683  Z " fill-rule="nonzero" fill="#000000" stroke="none" transform="matrix(1 0 0 1 338 277 )" />
  </g>
</svg>