<?xml version="1.0" encoding="utf-8"?>
<svg version="1.1" xmlns:xlink="http://www.w3.org/1999/xlink" width="170px" height="98px" xmlns="http://www.w3.org/2000/svg">
  <defs>
    <mask fill="white" id="clip16">
      <path d="M 3.66379310344828 20  C 1.64033604587862 19.5489685663163  0 23.9365780179746  0 29.3489685663163  L 0 88.2  C 0 93.6123905483419  1.64033604587862 98  3.66379310344828 98  L 166.336206896552 98  C 168.359663954121 98  170 93.6123905483419  170 88.2  L 170 29.3489685663163  C 170 23.9365780179746  168.359663954121 19.5489685663163  166.336206896552 20  L 144.183229813665 20  L 136.397722567288 0.863586146517259  L 134.319525094689 5.73029641737268  L 128.418633540373 20  L 3.66379310344828 20  Z " fill-rule="evenodd" />
    </mask>
  </defs>
  <g transform="matrix(1 0 0 1 -1196 -68 )">
    <path d="M 3.66379310344828 20  C 1.64033604587862 19.5489685663163  0 23.9365780179746  0 29.3489685663163  L 0 88.2  C 0 93.6123905483419  1.64033604587862 98  3.66379310344828 98  L 166.336206896552 98  C 168.359663954121 98  170 93.6123905483419  170 88.2  L 170 29.3489685663163  C 170 23.9365780179746  168.359663954121 19.5489685663163  166.336206896552 20  L 144.183229813665 20  L 136.397722567288 0.863586146517259  L 134.319525094689 5.73029641737268  L 128.418633540373 20  L 3.66379310344828 20  Z " fill-rule="nonzero" fill="#ffffff" stroke="none" transform="matrix(1 0 0 1 1196 68 )" />
    <path d="M 3.66379310344828 20  C 1.64033604587862 19.5489685663163  0 23.9365780179746  0 29.3489685663163  L 0 88.2  C 0 93.6123905483419  1.64033604587862 98  3.66379310344828 98  L 166.336206896552 98  C 168.359663954121 98  170 93.6123905483419  170 88.2  L 170 29.3489685663163  C 170 23.9365780179746  168.359663954121 19.5489685663163  166.336206896552 20  L 144.183229813665 20  L 136.397722567288 0.863586146517259  L 134.319525094689 5.73029641737268  L 128.418633540373 20  L 3.66379310344828 20  Z " stroke-width="2" stroke="#9ea7b4" fill="none" transform="matrix(1 0 0 1 1196 68 )" mask="url(#clip16)" />
  </g>
</svg>