<?xml version="1.0" encoding="utf-8"?>
<svg version="1.1" xmlns:xlink="http://www.w3.org/1999/xlink" width="15px" height="10px" preserveAspectRatio="xMinYMid meet" viewBox="78 82  15 8" xmlns="http://www.w3.org/2000/svg">
  <path d="M 79 86.5  L 85.5 86.5  A 2.5 2.5 0 0 1 88.5 89 A 2.5 2.5 0 0 0 91 91.5 L 1429 91.5  " stroke-width="1" stroke-dasharray="9,4" stroke="#1abc9c" fill="none" />
  <path d="M 81 83.5  A 3 3 0 0 0 78 86.5 A 3 3 0 0 0 81 89.5 A 3 3 0 0 0 84 86.5 A 3 3 0 0 0 81 83.5 Z M 1428 97.8  L 1434 91.5  L 1428 85.2  L 1428 97.8  Z " fill-rule="nonzero" fill="#1abc9c" stroke="none" />
</svg>