<?xml version="1.0" encoding="utf-8"?>
<svg version="1.1" xmlns:xlink="http://www.w3.org/1999/xlink" width="40px" height="40px" xmlns="http://www.w3.org/2000/svg">
  <g transform="matrix(1 0 0 1 -1304 -18 )">
    <path d="M 1304 18  L 1344 18  L 1344 58  L 1304 58  L 1304 18  " fill-rule="nonzero" fill="#cccccc" stroke="none" />
    <path d="M 1307 21  L 1341 21  L 1341 55  L 1307 55  L 1307 21  " fill-rule="nonzero" fill="#ffffff" stroke="none" />
    <path d="M 1327.8 30  C 1326.12 30  1324.8 28.68  1324.8 27  C 1324.8 25.32  1326.12 24  1327.8 24  C 1329.48 24  1330.8 25.32  1330.8 27  C 1330.8 28.68  1329.48 30  1327.8 30  " fill-rule="nonzero" fill="#cccccc" stroke="none" />
    <path d="M 1308 54  L 1308 36.4  L 1316 28.4  L 1327.2 34.8  L 1333.6 33.2  L 1340 34.8  L 1340 54  L 1308 54  " fill-rule="nonzero" fill="#169bd5" stroke="none" />
  </g>
</svg>